<svg viewBox="0 0 214 39" fill="none" xmlns="http://www.w3.org/2000/svg">
<path d="M0 0H15.6889C18.6773 0 20.9185 0.73891 22.5787 1.97043C24.405 3.44825 25.4011 5.58287 25.4011 8.21011C25.4011 11.2478 24.1559 13.1362 21.6656 14.2856V14.4498C24.986 15.5171 26.8953 18.4727 26.8953 22.0031C26.8953 25.3692 25.5671 27.9965 23.4088 29.6385C21.5826 30.9521 19.2583 31.5268 16.104 31.5268H0V0ZM14.1117 12.3152C15.7719 12.3152 17.0171 11.4121 17.0171 9.52373C17.0171 7.7175 15.7719 6.81439 14.0287 6.81439H8.63305V12.2331H14.1117V12.3152ZM14.8588 24.5482C16.768 24.5482 18.1792 23.3988 18.1792 21.3463C18.1792 19.1296 16.685 18.1443 14.8588 18.1443H8.71606V24.6303H14.8588V24.5482ZM28.3064 0H36.5244V31.6089H28.3064V0ZM38.1846 20.3611C38.1846 13.2183 42.8332 8.45641 50.0551 8.45641C57.277 8.45641 61.8425 13.3004 61.8425 20.3611C61.8425 27.5039 57.277 32.2657 50.0551 32.2657C42.8332 32.2657 38.1846 27.5039 38.1846 20.3611ZM53.6245 20.3611C53.6245 16.4202 52.3794 13.9572 49.8891 13.9572C47.3988 13.9572 46.2366 16.4202 46.2366 20.3611C46.2366 24.3019 47.3988 26.8471 49.8891 26.8471C52.3794 26.765 53.6245 24.3019 53.6245 20.3611V20.3611ZM62.7556 20.3611C62.7556 13.2183 67.4042 8.45641 74.6261 8.45641C81.8479 8.45641 86.3305 13.2183 86.3305 20.3611C86.3305 27.5039 81.7649 32.2657 74.5431 32.2657C67.4042 32.2657 62.7556 27.5039 62.7556 20.3611V20.3611ZM78.1955 20.3611C78.1955 16.4202 76.9504 13.9572 74.46 13.9572C71.9697 13.9572 70.8076 16.4202 70.8076 20.3611C70.8076 24.3019 71.9697 26.8471 74.46 26.8471C76.9504 26.765 78.1955 24.3019 78.1955 20.3611V20.3611ZM87.9907 9.03112H95.6276V12.3973H95.7936C97.2878 9.77003 99.3631 8.37431 102.683 8.37431C105.589 8.37431 107.747 9.77003 108.826 12.2331H108.992C110.818 9.27742 113.226 8.37431 116.048 8.37431C121.361 8.37431 123.602 12.2331 123.602 17.4054V31.5268H115.633V18.8011C115.633 16.5023 114.886 15.0245 112.894 15.0245C110.901 15.0245 109.905 16.8307 109.905 19.2938V31.5268H101.936V18.8011C101.936 16.5023 101.189 15.0245 99.1971 15.0245C97.2048 15.0245 96.2087 16.8307 96.2087 19.2938V31.5268H87.9907V9.03112ZM133.646 28.5712H133.563V31.5268H125.926V0H133.895V11.3299H134.061C135.555 9.35952 137.631 8.29221 140.536 8.29221C146.264 8.29221 149.584 13.3825 149.584 20.1969C149.584 27.8323 146.015 32.2657 140.038 32.2657C137.548 32.2657 134.974 31.1163 133.646 28.5712V28.5712ZM141.366 20.1148C141.366 16.5023 140.038 14.1214 137.631 14.1214C135.14 14.1214 133.646 16.5023 133.646 20.1148C133.646 23.7272 135.223 26.1081 137.631 26.1081C140.038 26.1081 141.366 23.8093 141.366 20.1148ZM150.497 20.279C150.497 13.2183 155.229 8.37431 162.036 8.37431C165.439 8.37431 168.012 9.44162 170.005 11.3299C172.661 13.8751 173.823 17.8159 173.74 22.4136H158.466C158.798 25.205 160.126 26.6829 162.534 26.6829C163.945 26.6829 165.19 26.026 165.688 24.5482H173.408C172.08 29.7206 168.012 32.2657 162.285 32.2657C155.229 32.1836 150.497 27.4218 150.497 20.279V20.279ZM158.466 17.898H165.771C165.605 15.1887 164.111 13.793 162.202 13.793C159.96 13.7109 158.715 15.2708 158.466 17.898ZM182.788 12.8899H182.954C184.614 9.77003 186.773 8.53851 189.512 8.53851C190.176 8.53851 190.591 8.62061 190.84 8.78482V15.6813H190.674C185.943 14.8603 183.203 17.077 183.203 22.1673V31.6089H175.151V9.03112H182.788V12.8899ZM191.67 31.6089H199.39C199.722 32.5941 200.718 33.4972 202.628 33.4972C205.201 33.4972 206.114 31.9373 206.114 29.5564V27.9144H205.948C204.703 29.3922 202.96 30.4595 200.469 30.4595C195.572 30.4595 191.255 26.8471 191.255 19.7864C191.255 13.3004 194.742 8.29221 200.054 8.29221C203.126 8.29221 204.952 9.52373 206.197 11.4121H206.363V8.94902H214V28.4891C214 32.1015 212.755 34.893 210.846 36.535C208.853 38.2591 206.031 38.998 202.794 38.998C196.651 39.0801 192.417 36.6171 191.67 31.6089ZM206.446 19.458C206.446 16.6665 205.118 14.3677 202.794 14.3677C200.552 14.3677 199.141 16.3381 199.141 19.458C199.141 22.4957 200.552 24.6303 202.794 24.6303C205.035 24.6303 206.446 22.4136 206.446 19.458Z" fill="#4B5371"/>
</svg>
