<svg viewBox="0 0 36 36" fill="none" xmlns="http://www.w3.org/2000/svg">
<path fill-rule="evenodd" clip-rule="evenodd" d="M0 36H36V0H0V36Z" fill="#4B5371"/>
<path fill-rule="evenodd" clip-rule="evenodd" d="M31.973 8.25975H30.7068V3.60169H31.8993V4.12313C32.0478 3.80982 32.4202 3.5325 32.9045 3.49707C33.7247 3.46219 34.2827 3.91444 34.2827 4.88757V8.25975H32.9794V4.74863C32.9794 4.33182 32.9793 3.98363 32.6812 3.91444C32.5693 3.87957 32.3831 3.91444 32.234 4.0185C32.0478 4.19288 31.973 4.401 31.973 4.74863V8.25975ZM9.9551 5.93044C9.9551 6.7995 9.9551 7.49475 9.80604 7.84294C9.6941 8.01619 9.58216 8.12082 9.32116 8.12082C9.09785 8.12082 8.94879 8.01619 8.87454 7.84238C8.68835 7.49475 8.68835 6.7995 8.68835 5.93044C8.68835 5.09625 8.68835 4.36669 8.87397 4.0185C8.94879 3.84469 9.09785 3.74063 9.32116 3.74063C9.58216 3.74063 9.6941 3.84469 9.80604 4.0185C9.99223 4.36613 9.9551 5.09625 9.9551 5.931V5.93044ZM10.4389 3.91444C10.1407 3.67088 9.76835 3.49707 9.32116 3.49707C8.87454 3.49707 8.53929 3.67144 8.20404 3.91444C7.68204 4.33182 7.34679 5.09625 7.34679 5.93044C7.34679 6.7995 7.68204 7.52963 8.20404 7.947C8.53929 8.19 8.87454 8.36382 9.32116 8.36382C9.76835 8.36382 10.1413 8.19 10.4394 7.947C10.998 7.52963 11.2961 6.7995 11.2961 5.93044C11.2961 5.09625 10.998 4.33182 10.4394 3.91444H10.4389ZM23.4416 10.0328V11.2838H23.1812C23.0321 10.7623 22.8082 10.3106 22.212 10.2758C21.8396 10.2414 21.5044 10.4501 21.4672 10.7623C21.4301 11.0756 21.5415 11.3529 22.212 11.7017C23.0692 12.1528 23.7397 12.3615 23.7397 13.3003C23.7397 14.3083 22.8082 14.7954 22.0258 14.7954H20.5352V13.0573H20.7962C20.9829 13.9607 21.2805 14.517 21.9887 14.5519C22.4358 14.5519 22.7705 14.3083 22.7705 13.8566C22.7705 13.4044 22.473 13.1265 21.7653 12.744C20.9829 12.2923 20.4986 12.0139 20.4986 11.3884C20.4986 10.5542 21.132 10.0328 22.1377 10.0328H23.4416ZM25.0807 8.25975V4.88757C25.0807 3.91444 24.5222 3.46219 23.7026 3.49707C23.1435 3.53194 22.8082 3.87957 22.6592 4.15744C22.473 3.67088 22.0629 3.46219 21.4667 3.49707C20.9829 3.53194 20.61 3.80982 20.4609 4.12313V3.60169H19.3061V8.25919H20.5729V4.74919C20.5729 4.40157 20.61 4.19288 20.8338 4.01907C20.9829 3.915 21.132 3.88013 21.2433 3.915C21.5415 3.98419 21.5415 4.33238 21.5415 4.74919V8.26032H22.8082V4.71375C22.8082 4.40044 22.8825 4.19175 23.0692 4.01794C23.2183 3.91388 23.3674 3.879 23.4787 3.91388C23.7769 3.98307 23.814 4.33125 23.814 4.74807V8.25919H25.0807V8.25975ZM12.1528 8.25975H13.4567V2.628H12.1528V8.25975ZM16.5487 3.98419C16.8097 4.33182 16.8097 5.16544 16.8097 5.82638C16.8097 6.52163 16.8474 7.42557 16.5493 7.8075C16.4373 7.947 16.3254 8.01619 16.1392 8.01619C15.8788 8.01619 15.7297 7.73832 15.6555 7.28607C15.6178 6.86925 15.6178 6.34782 15.6178 5.7915C15.6178 4.85325 15.692 3.80982 16.1769 3.80982C16.3625 3.80982 16.4373 3.87957 16.5493 3.98419H16.5487ZM18.077 8.25975V2.628H16.7726V3.94932C16.6612 3.70575 16.4002 3.53194 16.0278 3.53194C15.0963 3.53194 14.3516 4.43588 14.3139 5.82638C14.2768 6.76519 14.612 8.3295 15.9159 8.3295C16.4373 8.3295 16.7355 8.05107 16.8474 7.8075V8.25975H18.077ZM28.2105 5.47875L27.8004 5.72175C27.3909 5.96532 27.3167 6.27863 27.279 6.62569C27.2418 6.90413 27.2418 7.14713 27.279 7.5645C27.3161 7.947 27.5771 8.01619 27.8004 7.947C28.0614 7.84238 28.2105 7.39069 28.2105 6.90413V5.47875ZM28.9552 3.74063C29.291 3.915 29.5144 4.19232 29.5144 4.81838V8.25975H28.2847V7.73832C28.1362 8.12082 27.7262 8.36382 27.167 8.36382C26.7204 8.36382 25.938 8.15569 25.938 7.07794C25.938 6.06938 26.6456 5.86125 27.4286 5.54794C28.1362 5.27007 28.2105 5.23519 28.2105 4.95732V4.19232C28.2105 3.87957 28.0243 3.74063 27.6514 3.74063C27.5029 3.7755 27.2418 3.84469 27.2418 4.0185C27.2042 4.22719 27.4652 4.22719 27.5029 4.53994C27.54 5.02707 27.1299 5.20032 26.7575 5.166C26.4965 5.166 26.1984 5.02707 26.1613 4.64457C26.1242 4.0185 26.8689 3.49707 27.9124 3.49707C28.3967 3.49707 28.6948 3.60169 28.9552 3.74063V3.74063ZM9.76835 11.979L9.35885 12.2226C8.94879 12.4661 8.87454 12.7789 8.83685 13.1265C8.80029 13.4044 8.80029 13.6828 8.83685 14.0648C8.83685 14.4821 9.09785 14.5519 9.32116 14.4473C9.61929 14.3432 9.76835 13.9264 9.76835 13.4044V11.979ZM10.5137 10.2409C10.8489 10.4496 11.0351 10.6931 11.0351 11.3186V14.7949H9.84372V14.2734C9.69466 14.6211 9.28516 14.8641 8.72604 14.8641C8.24172 14.8641 7.49641 14.6908 7.49641 13.6131C7.49641 12.6051 8.2046 12.3964 8.94935 12.0831C9.69466 11.7709 9.76891 11.736 9.76891 11.4924V10.7274C9.76891 10.3804 9.58273 10.2414 9.21035 10.2758C9.06129 10.2758 8.80085 10.3455 8.80085 10.5193C8.76316 10.7629 9.02416 10.7629 9.06129 11.0756C9.09841 11.5273 8.68891 11.7011 8.31597 11.7011C8.05554 11.6663 7.75741 11.5273 7.71972 11.1448C7.6826 10.5542 8.42791 10.0322 9.47079 10.0322C9.95566 10.0322 10.2532 10.1019 10.5142 10.2414L10.5137 10.2409ZM19.53 11.4233C19.53 10.4501 18.9709 9.963 18.1513 10.0328C17.7418 10.0671 17.406 10.2409 17.2198 10.4844V9.12882H15.9525V12.3272C15.9525 13.5084 15.0581 14.6211 14.1637 14.5862C13.5309 14.5862 13.3818 14.1345 13.307 13.6479C13.1957 12.9527 13.1957 12.1534 13.2699 11.2838C13.3447 10.728 13.4938 10.2758 13.941 10.2758C14.2762 10.2758 14.3133 10.4844 14.1643 10.6234C14.0152 10.7978 13.7919 10.971 13.9033 11.3535C14.0152 11.7709 14.7228 11.8401 15.0587 11.5279C15.3191 11.2494 15.282 10.7972 15.0958 10.5193C14.8719 10.1717 14.4995 10.0328 13.941 10.0328C13.2328 10.0328 11.8918 10.6234 11.8918 12.5004C11.8918 14.517 13.2699 14.8646 14.0523 14.8646C14.9467 14.8646 15.7286 14.1345 15.9525 13.5433V14.7949H17.2192V11.2838C17.2192 10.9367 17.2935 10.728 17.4802 10.5536C17.6293 10.4496 17.8155 10.4147 17.9274 10.4496C18.2255 10.5193 18.2255 10.8669 18.2255 11.2838V14.7949H19.5294V11.4233H19.53ZM6.4901 2.52394V4.50563H6.2291C6.00579 3.5325 5.52147 2.80182 4.85097 2.7675C4.40379 2.73263 4.14279 2.97563 3.91947 3.32325C3.69616 3.74063 3.58422 4.60969 3.58422 5.652C3.58422 6.62569 3.62135 7.35582 3.73329 7.87725C3.80754 8.12082 3.99372 8.50275 4.47804 8.50275C4.73904 8.50275 4.92522 8.43357 5.03716 8.29463C5.22279 8.08594 5.26047 7.66857 5.26047 7.39069V6.45188C5.26047 6.10425 5.1491 5.89613 4.96235 5.7915C4.81385 5.72175 4.58997 5.72175 4.4786 5.68688V5.44388H6.56435V10.4153H6.30391C6.19197 10.0328 6.11772 9.75432 5.93097 9.44157C5.74535 9.12882 5.40954 8.78119 4.85097 8.78119C4.25472 8.74632 3.80754 9.09394 3.80754 9.61538C3.80754 10.3106 4.25472 10.4844 5.07429 10.9018C5.85672 11.3186 6.86304 11.6668 6.86304 12.8829C6.86304 14.0648 5.78191 14.7954 4.55285 14.7954H2.57847V12.3964H2.83891C3.17416 14.2043 3.99372 14.517 4.55285 14.517C5.26047 14.517 5.59572 14.0996 5.59572 13.509C5.5586 12.744 4.99947 12.4661 4.2176 12.0836C3.09991 11.493 2.57847 11.2146 2.57847 10.2414C2.6156 9.40669 3.32322 8.88582 4.10566 8.67713C2.46654 8.50275 1.98222 7.11282 2.01935 5.61769C2.01935 4.12313 2.95085 2.52394 4.77616 2.52394H6.4901Z" fill="white"/>
</svg>
