<svg width="184" height="36" viewBox="0 0 184 36" fill="none" xmlns="http://www.w3.org/2000/svg">
<g clip-path="url(#clip0)">
<path d="M95.2798 19.0212C95.3098 19.1414 95.3697 19.2315 95.3996 19.3517H102.109C102.259 19.3517 102.409 19.1714 102.558 19.0813C102.379 18.931 102.199 18.7207 101.959 18.6606C100.252 18.2098 100.042 18.0295 100.042 16.3467C100.012 11.8993 100.012 7.45191 100.042 3.00449C100.042 1.38179 100.462 0.810839 101.899 0.720688C102.079 0.720688 102.259 0.450238 102.469 0.330037C102.229 0.239887 102.019 0.0595866 101.78 0.0595866C99.8626 0.0295365 97.9756 0.0295365 96.0586 0.0595866C95.819 0.0595866 95.5794 0.269937 95.3397 0.390137C95.5494 0.510338 95.7291 0.690638 95.9688 0.750738C97.4065 1.11134 97.5862 1.26159 97.6162 2.73404C97.6761 4.4469 97.6162 6.15975 97.6461 7.87261C97.6461 8.47361 97.3765 8.71401 96.7775 8.71401C93.6025 8.71401 90.4275 8.71401 87.2824 8.71401C86.6534 8.71401 86.4438 8.44356 86.4438 7.84256C86.4737 6.09965 86.4138 4.35675 86.4737 2.61384C86.5037 1.29164 86.7732 1.05124 88.0313 0.750738C88.3008 0.690638 88.5405 0.510338 88.81 0.360087C88.7801 0.239887 88.7501 0.119687 88.6902 -0.000513603H82.49C82.2803 -0.000513603 82.0707 -0.0305637 81.8909 0.0295365C81.7112 0.0896366 81.5914 0.269937 81.3518 0.450238C81.6513 0.570438 81.7711 0.660588 81.8909 0.660588C83.7181 0.750738 83.9577 1.29164 84.0475 3.18479C84.1374 5.108 84.0775 7.00116 84.0775 8.92436C84.0775 11.4786 84.0475 14.0629 84.0475 16.6172C84.0475 17.699 83.6282 18.4502 82.4301 18.5704C82.1905 18.6005 82.0108 18.8709 81.7711 19.0512L81.8909 19.2315H89.1096L89.1994 18.931C88.8699 18.8108 88.5405 18.6305 88.211 18.6005C86.8332 18.3601 86.5336 18.0896 86.4737 16.6773C86.4138 14.724 86.4737 12.7708 86.4438 10.8476C86.4438 10.1865 86.6834 9.88596 87.3424 9.91601H96.7475C97.3765 9.91601 97.6761 10.1865 97.6761 10.8476C97.6461 12.8008 97.6761 14.7541 97.6461 16.6773C97.6162 18.0596 97.3765 18.2699 96.0287 18.6005C95.7591 18.6305 95.5494 18.8709 95.2798 19.0212V19.0212ZM45.1688 19.2015C44.8393 18.901 44.7794 18.7808 44.6896 18.7808C42.8624 18.3601 42.8025 18.2699 42.8025 16.4068C42.8025 14.123 42.8025 11.8092 42.8025 9.52536C42.8025 8.20316 42.8025 6.8509 42.8025 5.5287C42.8025 4.53705 43.0422 3.6656 44.3002 3.63555C44.4799 3.63555 44.6596 3.45525 44.8693 3.3651C44.8693 3.27495 44.8393 3.18479 44.8393 3.09464C43.8209 3.09464 42.8025 3.03454 41.8141 3.12469C40.8257 3.21484 39.7474 2.73404 38.5792 3.3651C38.9386 3.51535 39.0884 3.6055 39.2681 3.63555C40.6459 3.9661 40.7957 4.11635 40.7957 5.55875V9.55541C40.7957 10.1264 40.5561 10.3668 40.0169 10.3668C37.3811 10.3668 34.7752 10.3668 32.1393 10.3668C31.5403 10.3668 31.3007 10.0963 31.3007 9.49531C31.3306 8.08296 31.3007 6.70065 31.3306 5.2883C31.3306 4.35675 31.6601 3.69565 32.7384 3.63555C32.9481 3.63555 33.1577 3.45525 33.3974 3.3651C33.3674 3.305 33.3674 3.2449 33.3375 3.15474H27.1971C27.3769 3.4853 27.5865 3.6055 27.7962 3.63555C28.9344 3.6656 29.2639 4.3868 29.2639 5.31835C29.2938 9.25491 29.2639 13.1915 29.2639 17.098C29.2639 17.9694 28.8445 18.5103 27.9759 18.6906C27.7662 18.7507 27.5865 18.931 27.3769 19.0512L27.4667 19.2015H33.5471L33.607 18.931C33.3974 18.8709 33.2176 18.7507 33.008 18.7207C31.6601 18.4803 31.3905 18.2399 31.3606 16.8576C31.3306 15.325 31.3606 13.7925 31.3306 12.2299C31.3306 11.5688 31.6002 11.2983 32.2292 11.2983H39.987C40.4962 11.2983 40.7957 11.5087 40.7957 12.1097C40.7658 13.8225 40.7957 15.5354 40.7957 17.2482C40.7957 17.9995 40.4662 18.4803 39.6875 18.6305C39.358 18.6906 39.0584 18.8108 38.729 18.931C38.7589 19.0212 38.7589 19.1113 38.7889 19.2015H45.1688ZM60.4747 15.4452C60.2051 15.1748 59.9355 14.9644 59.7259 14.724C57.0301 11.689 54.3344 8.65391 51.6686 5.5888C50.9497 4.77745 50.5004 3.5454 49.6318 3.12469C48.7631 2.70399 47.5051 3.00449 46.4268 3.00449C46.2471 3.00449 46.0374 3.12469 45.6481 3.2449C46.0374 3.45525 46.1872 3.57545 46.3669 3.63555C48.194 4.11635 48.4337 4.4469 48.4337 6.34005V12.891C48.4337 14.2432 48.4037 15.6255 48.3438 16.9778C48.3139 17.9694 47.9544 18.6906 46.8162 18.7207C46.6365 18.7207 46.4568 18.931 46.0674 19.1714H51.8782C51.7884 18.901 51.6686 18.7507 51.5188 18.7207C49.6917 18.3601 49.6318 18.3601 49.5719 16.527C49.482 13.5821 49.4521 10.6673 49.3922 7.72236C49.3922 7.27161 49.482 6.7908 49.5419 6.0696L61.4032 19.6823C61.6429 19.2015 61.7028 18.8108 61.7028 18.4202C61.7028 14.3935 61.7028 10.3668 61.7327 6.34005C61.7327 4.95775 61.8226 3.6055 63.7096 3.51535C63.7695 3.51535 63.8294 3.39515 64.069 3.12469H58.2582C58.4079 3.45525 58.6476 3.63555 58.8572 3.63555C60.0853 3.63555 60.5346 4.3267 60.5346 5.4686V15.4452H60.4747ZM147.847 19.2616C147.877 19.1414 147.907 19.0512 147.937 18.931C147.727 18.8409 147.488 18.8108 147.308 18.6906C146.739 18.3901 146.08 18.2098 145.66 17.7591C143.504 15.4452 141.437 13.0412 139.31 10.6673C138.891 10.1865 138.861 9.82586 139.37 9.37511C140.359 8.47361 141.287 7.54206 142.276 6.64055C143.743 5.25825 145.211 3.87595 147.338 3.5454C147.398 3.5454 147.458 3.4252 147.667 3.15474H142.186C142.156 3.2449 142.126 3.33505 142.126 3.39515C142.515 3.57545 142.905 3.75575 143.294 3.9661C142.485 5.55875 137.513 10.3067 136.435 10.4569C136.375 10.0963 136.315 9.73571 136.315 9.37511C136.285 8.29331 136.285 7.18146 136.315 6.09965C136.345 4.1464 136.345 4.1464 138.142 3.5454C138.232 3.51535 138.262 3.4252 138.502 3.18479H132.272C132.272 3.27495 132.242 3.3651 132.242 3.45525C132.481 3.5454 132.721 3.6656 132.96 3.69565C133.979 3.7257 134.338 4.35675 134.338 5.25825V17.2482C134.338 18.0896 133.949 18.6005 133.11 18.7507C132.871 18.7808 132.691 18.9611 132.451 19.0512C132.481 19.1113 132.511 19.1714 132.541 19.2315H138.382C138.382 19.1414 138.412 19.0212 138.412 18.931C138.142 18.8709 137.873 18.7808 137.633 18.7507C136.794 18.6606 136.315 18.2098 136.285 17.3684C136.255 15.5955 136.255 13.8225 136.255 12.0496C136.255 11.2983 136.675 11.1481 137.274 11.5387C137.513 11.689 137.723 11.8693 137.903 12.0796C139.58 13.9728 141.257 15.8659 142.935 17.7591C143.114 17.9694 143.264 18.2399 143.414 18.4803C142.935 18.7207 142.545 18.901 142.186 19.0813C142.216 19.1714 142.276 19.2315 142.306 19.3217H147.847V19.2616ZM160.098 6.3701C160.188 6.3701 160.277 6.3701 160.367 6.34005C164.261 10.8175 168.125 15.2649 172.139 19.8626C172.259 19.4719 172.348 19.2616 172.348 19.0512C172.348 17.9394 172.288 16.7975 172.288 15.6856C172.318 12.2599 172.378 8.86426 172.408 5.43855C172.408 4.4469 172.768 3.7858 173.846 3.69565C174.086 3.6656 174.265 3.51535 174.505 3.39515L174.445 3.15474H168.814C168.964 3.4853 169.173 3.6656 169.353 3.6656C170.701 3.63555 171.15 4.4469 171.18 5.61885C171.21 8.83421 171.24 12.0496 171.24 15.2349C171.24 15.2649 171.15 15.325 171.09 15.3551C171.001 15.295 170.911 15.2649 170.851 15.2048C167.766 11.689 164.561 8.26326 161.655 4.6272C160.667 3.39515 159.828 2.85424 158.36 3.06459C157.761 3.15474 157.162 3.06459 156.533 3.06459C156.533 3.15474 156.503 3.27495 156.473 3.3651C156.683 3.45525 156.893 3.6055 157.132 3.6656C158.63 4.0262 159.019 4.3267 159.049 5.85925C159.079 9.67561 158.989 13.522 158.93 17.3384C158.93 18.1798 158.45 18.6305 157.612 18.7207C157.372 18.7507 157.132 18.931 156.923 19.0212C156.953 19.0813 156.983 19.1113 157.013 19.1714H162.584C162.584 19.0813 162.614 18.9611 162.614 18.8709C162.284 18.8108 161.925 18.8108 161.655 18.6606C161.206 18.4202 160.457 18.0896 160.397 17.729C159.798 13.9728 160.038 10.1865 160.098 6.3701V6.3701ZM2.33632 0.209837C2.33632 0.330037 2.36627 0.450238 2.36627 0.570438C2.7257 0.630538 3.08514 0.750738 3.41462 0.780789C4.49292 0.840889 5.00212 1.47194 5.09198 2.46359C5.12193 2.82419 5.15188 3.21484 5.15188 3.57545C5.15188 7.99281 5.18183 12.3801 5.12193 16.7975C5.09198 18.5103 4.94221 20.1931 4.67264 21.8759C4.43301 23.4386 3.7441 23.7992 2.21651 23.4386C1.85707 23.3484 1.49764 23.2583 1.10825 23.2282C0.329481 23.1982 0 23.7992 0 24.4903C0 24.7007 0.658961 25.0913 1.0184 25.0913C3.08514 25.2416 4.67264 24.28 5.93065 22.6873C7.24858 21.0045 7.51815 19.0212 7.51815 16.9778C7.57806 12.29 7.5481 7.60216 7.57806 2.94439C7.57806 1.44189 7.84763 1.14139 9.19551 0.780789C9.43513 0.720688 9.61485 0.480288 9.82452 0.299987C9.58489 0.209837 9.37522 0.0595866 9.1356 0.0595866C7.15872 0.0295365 5.18183 0.0295365 3.20495 0.0595866C2.93537 0.0295365 2.63585 0.149737 2.33632 0.209837V0.209837ZM126.341 19.2315L126.401 18.931C126.161 18.8709 125.952 18.7808 125.712 18.7507C124.364 18.5404 124.124 18.33 124.035 16.9177C123.975 15.9861 123.975 15.0846 123.975 14.1531C123.975 11.088 123.975 7.99281 123.975 4.9277C123.975 4.3868 124.005 3.906 124.693 3.7858C127.06 3.33505 129.186 4.95775 129.306 7.39181C129.426 9.70566 128.497 11.0279 126.281 11.7491C126.041 11.8092 125.832 11.9594 125.622 12.0496C125.652 12.1698 125.682 12.29 125.742 12.3801C126.521 12.2299 127.329 12.1698 128.078 11.9594C130.414 11.2983 131.613 9.76576 131.553 7.54206C131.493 5.4085 130.265 3.69565 127.898 3.39515C125.382 3.06459 122.836 3.24489 120.29 3.21484C120.171 3.21484 120.021 3.4252 119.781 3.6656C120.231 3.7858 120.5 3.906 120.8 3.906C121.668 3.9661 122.028 4.41685 121.998 5.2282V17.2182C121.998 18.1497 121.518 18.6005 120.65 18.7207C120.41 18.7507 120.171 18.8709 119.931 18.931C119.961 19.0212 119.961 19.1113 119.991 19.2315H126.341ZM72.6655 6.27995C73.3544 3.8459 72.7853 2.97444 70.5688 2.76409C69.9098 2.70399 69.191 2.67394 68.532 2.76409C66.7947 2.97444 65.3869 3.75575 64.7579 5.4686C64.099 7.27161 64.6082 8.86426 65.986 10.1264C66.8846 10.9377 67.9629 11.5688 68.9214 12.32C69.5803 12.8309 70.3292 13.3117 70.8384 13.9728C71.677 15.0546 71.7369 16.3167 71.1079 17.5487C70.5089 18.7207 69.4006 19.0212 68.1726 18.9611C66.2855 18.8409 65.1773 17.699 64.4584 16.0462C64.3386 15.7457 64.1289 15.4753 63.9492 15.2048C63.47 18.33 64.099 19.2015 66.9445 19.6222C67.6334 19.7123 68.3822 19.7123 69.0711 19.6222C71.048 19.3818 72.6056 18.4803 73.1148 16.4369C73.6539 14.3634 73.0249 12.5604 71.3176 11.2382C70.3591 10.487 69.2509 9.91601 68.2624 9.19481C67.6035 8.68396 66.9145 8.08296 66.4952 7.39181C65.6565 6.0095 66.3454 4.17645 67.7832 3.63555C69.6103 2.94439 71.3775 3.69565 72.1862 5.4686C72.366 5.7691 72.5457 6.0095 72.6655 6.27995V6.27995ZM183.311 6.27995C184.03 3.9661 183.431 3.03454 181.334 2.76409C180.795 2.70399 180.256 2.70399 179.717 2.73404C177.68 2.76409 176.003 3.8459 175.434 5.4686C174.805 7.21151 175.314 9.07461 176.961 10.4269C177.92 11.2382 179.028 11.8392 180.046 12.5905C180.585 12.9811 181.154 13.4319 181.544 13.9728C182.353 15.0846 182.442 16.3467 181.784 17.5487C181.155 18.7207 180.046 19.0212 178.818 18.9611C176.961 18.8409 175.883 17.729 175.134 16.1364C174.984 15.8058 174.775 15.5354 174.505 15.0245C173.966 17.9093 174.834 19.2315 177.38 19.5921C178.219 19.7123 179.088 19.7123 179.926 19.6222C181.813 19.3818 183.311 18.4502 183.82 16.497C184.359 14.5137 183.82 12.7407 182.233 11.4185C181.364 10.6973 180.376 10.1865 179.447 9.49531C178.758 8.98446 178.039 8.50366 177.5 7.84256C176.332 6.3701 176.871 4.2666 178.489 3.63555C180.316 2.94439 182.113 3.6656 182.922 5.4686C183.012 5.73905 183.191 6.0095 183.311 6.27995V6.27995ZM155.215 19.2315C155.275 19.1113 155.335 19.0212 155.395 18.901C155.275 18.8409 155.155 18.8108 155.006 18.7808C153.059 18.2399 153.059 18.2399 153.059 16.2566C153.059 14.3033 153.059 12.3501 153.059 10.4269C153.059 8.62386 153.119 6.82085 153.149 5.01785C153.179 4.2065 153.568 3.75575 154.407 3.69565C154.706 3.6656 154.976 3.5454 155.275 3.45525C155.275 3.3651 155.245 3.2449 155.215 3.15474H148.955L148.895 3.4252C149.165 3.51535 149.464 3.6656 149.734 3.69565C150.633 3.75575 150.992 4.2666 150.992 5.108V17.2783C150.992 18.1497 150.543 18.6005 149.734 18.7207C149.464 18.7808 149.195 18.901 148.925 18.9611L148.985 19.2315H155.215ZM50.141 35.9995C50.1709 35.3985 50.2009 35.0679 50.2009 34.7374C50.2009 32.9344 50.2009 31.1013 50.2009 29.2983C50.2009 28.517 50.2308 27.7357 51.1294 27.4052H48.6433C48.9429 27.7057 49.482 27.9761 49.512 28.2466C49.6018 29.9895 49.5419 31.7624 49.5419 33.7457C47.8945 31.8826 46.307 30.2599 44.9591 28.4269C44.1804 27.3751 43.3716 27.1347 42.503 27.315C42.7726 27.8259 43.3117 28.3668 43.3417 28.9678C43.4615 30.5003 43.4016 32.0329 43.3716 33.5654C43.3417 34.3768 43.4615 35.2783 42.4132 35.6088H45.0191C44.6596 35.3083 44.0306 35.0679 44.0306 34.7674C43.9407 32.8743 43.9707 30.9811 43.9707 28.9377C46.0674 31.3117 48.0143 33.5354 50.141 35.9995V35.9995ZM90.6671 33.8359C90.5173 33.9861 90.4275 34.0763 90.3676 34.1664C89.5888 35.2783 88.3008 35.6689 86.953 35.2182C85.7548 34.7975 86.3239 33.7157 86.2041 32.9344C86.1742 32.724 86.2041 32.5137 86.2041 32.3334C86.1442 31.7324 86.4438 31.5821 86.9829 31.5821C87.8515 31.5821 88.7501 31.4619 89.0796 32.5738V29.9895C88.4506 31.2215 88.0612 31.3718 86.294 31.0112V27.7357C87.6718 27.8559 89.1695 27.1347 90.0081 28.9077C89.9482 28.3968 89.8584 27.916 89.7985 27.4052H84.6466C84.8263 27.886 85.1258 28.3968 85.1558 28.9077C85.2157 30.5003 85.1558 32.123 85.1857 33.7157C85.1857 34.5871 85.2756 35.4586 84.0176 35.6088C85.7249 35.729 87.3723 35.729 89.0197 35.729C90.4874 35.729 90.6072 35.5788 90.6671 33.8359V33.8359ZM26.658 27.3751C27.5865 27.5554 27.4667 28.2766 27.4967 28.9377C27.4967 30.2299 27.4967 31.522 27.5566 32.8442C27.6464 34.7975 28.575 35.7891 30.432 35.9093C32.4688 36.0596 33.7568 35.2182 34.0264 33.295C34.2061 31.9127 34.1462 30.5003 34.2061 29.118C34.236 28.3968 34.1761 27.6456 35.1346 27.4352H32.7983C33.0379 27.7357 33.5172 28.0362 33.5172 28.3668C33.5771 30.0796 33.6669 31.7925 33.4573 33.4452C33.2776 34.8576 32.2292 35.4886 30.8813 35.3985C29.6233 35.3083 28.8146 34.5871 28.6648 33.1748C28.5151 31.8526 28.575 30.5304 28.5151 29.2082C28.4851 28.4569 28.5151 27.7357 29.3837 27.4352C28.4851 27.3751 27.5865 27.3751 26.658 27.3751V27.3751ZM149.854 27.3751C150.273 27.7057 150.693 27.886 150.872 28.2165C151.591 29.5387 152.34 30.8309 152.879 32.2132C153.478 33.7157 153.059 35.0679 151.921 35.6389H155.126C154.766 35.3384 154.167 35.0679 154.137 34.7975C154.107 33.7457 153.987 32.5437 154.407 31.6122C155.126 30.0796 155.725 28.3668 157.432 27.3751H155.006C155.305 27.5855 155.515 27.7357 155.784 27.916C155.126 29.1481 154.467 30.32 153.718 31.7023C153.149 30.5604 152.639 29.6289 152.22 28.6673C152.07 28.3067 152.16 27.8559 152.13 27.3751H149.854ZM68.9513 27.3451C69.3108 27.886 69.7601 28.3668 69.9997 28.9377C70.9582 31.2215 71.8568 33.5053 72.8751 35.9995C73.0848 35.5187 73.2346 35.2482 73.3544 34.9477C74.253 32.9344 75.0917 30.8609 76.0501 28.8776C76.3197 28.3067 76.799 27.8559 77.1284 27.4052H75.2115C75.3313 27.7057 75.6608 28.0663 75.5709 28.2766C74.852 30.1397 74.0733 31.9728 73.1747 34.1364C72.366 32.123 71.6471 30.3801 70.9881 28.6372C70.8683 28.2766 71.048 27.7958 71.078 27.3451H68.9513ZM137.453 35.6689H140.539C140.239 35.3384 139.67 35.0078 139.64 34.6773C139.55 32.3935 139.61 30.1097 139.61 27.8559C141.647 27.4953 142.126 27.6456 142.905 28.9978C142.965 28.2766 143.025 27.6756 143.055 27.1948C140.509 27.4352 138.022 27.4653 135.476 27.1648C135.357 27.6456 135.207 28.2165 135.027 28.9978C136.315 27.6456 136.884 27.4653 138.562 27.916V33.926C138.592 34.7374 138.502 35.4886 137.453 35.6689ZM116.606 28.9678C116.696 28.9077 116.816 28.8776 116.906 28.8476C116.726 28.3668 116.726 27.7057 116.367 27.4352C115.588 26.7741 113.461 27.1948 112.802 28.0362C112.023 29.0279 112.293 30.3501 113.431 31.2516C113.97 31.6723 114.569 32.0028 115.109 32.4235C115.738 32.9043 116.217 33.5654 115.917 34.3467C115.708 34.8275 115.109 35.4586 114.689 35.4586C114.03 35.4586 113.341 35.0379 112.742 34.6773C112.443 34.497 112.323 34.0462 112.083 33.6255C111.874 35.3985 112.413 35.9394 114.21 35.9394C116.187 35.9394 117.385 34.5571 116.756 32.8743C116.516 32.2132 115.827 31.6723 115.258 31.1614C114.779 30.7107 114.06 30.4402 113.671 29.9294C113.371 29.5387 113.281 28.7875 113.461 28.3668C113.611 28.0062 114.27 27.7357 114.749 27.6456C115.768 27.3751 116.187 28.1865 116.606 28.9678V28.9678ZM59.0669 27.3451C59.2766 27.886 59.6061 28.3968 59.636 28.9077C59.6959 30.5003 59.666 32.123 59.666 33.7157C59.666 34.527 59.7858 35.3684 58.7075 35.6088H61.7028C60.8042 35.4586 60.7143 34.8576 60.7143 34.1364C60.7143 32.4235 60.6544 30.7107 60.7443 29.0279C60.7742 28.4569 61.1337 27.8559 61.3134 27.3451H59.0669ZM127.539 35.6689C126.551 35.3985 126.551 34.6773 126.581 33.896C126.61 32.3033 126.521 30.6806 126.61 29.088C126.64 28.487 126.97 27.916 127.15 27.3751H124.544C125.472 27.886 125.562 27.9761 125.562 29.088C125.592 30.5304 125.562 31.9728 125.562 33.3851C125.562 34.2866 125.712 35.2783 124.544 35.6689H127.539Z" fill="#4B5371"/>
<path d="M95.2798 19.0217C95.5195 18.8715 95.7591 18.6611 96.0287 18.601C97.3765 18.2705 97.6162 18.0601 97.6461 16.6778C97.6761 14.7245 97.6461 12.7713 97.6761 10.8481C97.6761 10.187 97.3765 9.91653 96.7475 9.91653C93.6025 9.91653 90.4874 9.91653 87.3423 9.91653C86.6834 9.91653 86.4438 10.217 86.4438 10.8481C86.4737 12.8013 86.4438 14.7546 86.4737 16.6778C86.5037 18.0902 86.8331 18.3606 88.211 18.601C88.5405 18.6611 88.8699 18.8414 89.1994 18.9316L89.1096 19.2321H81.8909L81.7711 19.0518C81.9808 18.9015 82.1905 18.601 82.4301 18.571C83.6582 18.4508 84.0475 17.6695 84.0475 16.6177C84.0775 14.0634 84.0775 11.4791 84.0775 8.92488C84.0775 7.00167 84.1374 5.10852 84.0475 3.18531C83.9577 1.29216 83.7181 0.751257 81.8909 0.661107C81.7711 0.661107 81.6513 0.570957 81.3518 0.450756C81.5914 0.270456 81.7412 0.0901554 81.8909 0.0300553C82.0707 -0.0300449 82.3103 5.19615e-06 82.49 5.19615e-06H88.6902C88.7202 0.120206 88.7501 0.240406 88.81 0.360606C88.5405 0.480807 88.3008 0.661107 88.0313 0.751257C86.7732 1.05176 86.5037 1.29216 86.4737 2.61436C86.4438 4.35727 86.4737 6.10017 86.4438 7.84308C86.4438 8.44408 86.6534 8.71453 87.2824 8.71453H96.7775C97.3765 8.71453 97.6461 8.47413 97.6461 7.87313C97.6162 6.16027 97.6461 4.44742 97.6162 2.73456C97.5862 1.26211 97.4065 1.11186 95.9687 0.751257C95.7291 0.691157 95.5494 0.510857 95.3397 0.390656C95.5794 0.270456 95.819 0.0601054 96.0586 0.0601054C97.9756 0.0300553 99.8626 0.0300553 101.78 0.0601054C102.019 0.0601054 102.229 0.240406 102.469 0.330556C102.289 0.480806 102.109 0.721207 101.899 0.721207C100.492 0.811357 100.072 1.38231 100.042 3.00501C100.012 7.45243 100.012 11.8998 100.042 16.3473C100.042 18.0301 100.252 18.2104 101.959 18.6611C102.169 18.7212 102.349 18.9316 102.558 19.0818C102.409 19.172 102.259 19.3523 102.109 19.3523C99.8626 19.3823 97.6461 19.3523 95.3996 19.3523C95.3697 19.2321 95.3397 19.1119 95.2798 19.0217V19.0217ZM45.1688 19.202H38.7889C38.7589 19.1119 38.7589 19.0217 38.729 18.9316C39.0285 18.8414 39.358 18.6912 39.6875 18.6311C40.4662 18.4808 40.7957 18 40.7957 17.2488C40.7957 15.5359 40.7957 13.823 40.7957 12.1102C40.7957 11.5092 40.4962 11.2988 39.987 11.2988C37.411 11.2988 34.8052 11.2988 32.2292 11.2988C31.6002 11.2988 31.3007 11.5693 31.3306 12.2304C31.3606 13.7629 31.3306 15.2955 31.3606 16.8581C31.3905 18.2104 31.6601 18.4808 33.008 18.7212C33.2177 18.7513 33.4273 18.8715 33.607 18.9316L33.5471 19.2321H27.5266L27.4368 19.0818C27.6464 18.9616 27.8262 18.7813 28.0358 18.7212C28.9045 18.5409 29.3238 18 29.3238 17.1286C29.3238 13.192 29.3238 9.25543 29.3238 5.34892C29.3238 4.38732 28.9644 3.66611 27.8561 3.66611C27.6464 3.66611 27.4368 3.51586 27.257 3.18531H33.3674C33.3974 3.24541 33.3974 3.30551 33.4273 3.39566C33.2177 3.48581 33.008 3.66611 32.7684 3.66611C31.6901 3.72622 31.3905 4.38732 31.3606 5.31887C31.3606 6.73122 31.3606 8.11353 31.3306 9.52588C31.3306 10.1269 31.5703 10.3973 32.1693 10.3973H40.0469C40.586 10.3973 40.8257 10.1569 40.8257 9.58598C40.7957 8.26378 40.8257 6.91152 40.8257 5.58932C40.8257 4.14692 40.6759 3.99667 39.2981 3.66611C39.1483 3.63606 38.9985 3.54591 38.6092 3.39566C39.7773 2.76461 40.8556 3.24541 41.8441 3.15526C42.8325 3.06511 43.8509 3.12521 44.8693 3.12521C44.8693 3.21536 44.8992 3.30551 44.8992 3.39566C44.7195 3.48581 44.5398 3.66611 44.3301 3.66611C43.0721 3.69616 42.8325 4.53757 42.8325 5.55927V9.55593V16.4374C42.8325 18.3005 42.9224 18.3907 44.7195 18.8114C44.7794 18.8114 44.8393 18.9015 45.1688 19.202V19.202ZM18.5707 2.73456C23.5429 2.73456 26.9575 6.13022 26.9875 11.0584C27.0174 15.9566 23.2733 19.7429 18.421 19.7129C13.4189 19.6828 9.76462 16.1369 9.76462 11.2988C9.76462 6.31052 13.4488 2.73456 18.5707 2.73456V2.73456ZM18.1814 3.45576C15.7851 3.39566 13.6884 4.71787 12.8498 7.00167C11.6516 10.2471 11.9512 13.4023 13.8082 16.3172C15.1262 18.4207 17.1929 19.2621 19.6191 18.9316C22.0752 18.571 23.5429 16.9783 24.2019 14.6644C24.9207 12.1102 24.6811 9.58598 23.6028 7.15192C22.5545 4.80802 20.7872 3.48581 18.1814 3.45576V3.45576Z" fill="#4B5371"/>
<path d="M111.095 2.73457C116.187 2.73457 119.512 6.07013 119.512 11.0885C119.512 16.0468 115.977 19.6227 111.095 19.6227C106.063 19.6528 102.289 16.1369 102.319 11.2688C102.349 6.34058 106.063 2.73457 111.095 2.73457V2.73457ZM117.295 11.8397C117.115 9.22539 116.456 7.09183 115.228 5.55927C112.682 2.37397 107.59 2.82472 105.673 6.43073C104.026 9.52589 104.625 14.424 106.931 17.0384C109.747 20.2237 114.809 19.4124 116.427 15.5059C116.906 14.3339 117.026 13.0718 117.295 11.8397V11.8397ZM60.4747 15.4458V5.49917C60.4747 4.38732 60.0254 3.66612 58.7973 3.66612C58.5877 3.66612 58.348 3.48582 58.1983 3.15527H64.0091C63.7695 3.39567 63.7096 3.51587 63.6497 3.54592C61.7627 3.63607 61.7027 5.01837 61.6728 6.37063C61.6428 10.3973 61.6428 14.424 61.6428 18.4508C61.6428 18.8414 61.6129 19.2321 61.3433 19.7129L49.482 6.10018C49.4221 6.82138 49.3322 7.30218 49.3322 7.75293C49.3922 10.6978 49.3922 13.6427 49.512 16.5576C49.5719 18.3907 49.6318 18.3907 51.4589 18.7513C51.6087 18.7813 51.7584 18.9316 51.8183 19.202H46.0075C46.3969 18.9616 46.5766 18.7513 46.7563 18.7513C47.9245 18.7212 48.2839 18 48.2839 17.0084C48.3139 15.6561 48.3438 14.2738 48.3738 12.9215C48.3738 10.7279 48.3738 8.53423 48.3738 6.37063C48.3738 4.47747 48.1341 4.17697 46.307 3.66612C46.1273 3.60602 45.9775 3.48582 45.5881 3.27547C46.0075 3.15527 46.1872 3.03507 46.3669 3.03507C47.4452 3.03507 48.7032 2.73457 49.5719 3.15527C50.4405 3.57597 50.8898 4.80802 51.6087 5.61937C54.2745 8.68448 56.9702 11.7195 59.666 14.7546C59.9355 14.995 60.2051 15.2054 60.4747 15.4458ZM147.847 19.2621H142.276C142.246 19.172 142.186 19.1119 142.156 19.0217C142.545 18.8414 142.905 18.6611 143.384 18.4207C143.204 18.1803 143.084 17.9099 142.905 17.6995C141.227 15.8064 139.55 13.9132 137.873 12.02C137.693 11.8097 137.483 11.6294 137.244 11.4791C136.645 11.1185 136.255 11.2688 136.225 11.99C136.225 13.7629 136.225 15.5359 136.255 17.3089C136.255 18.1503 136.734 18.601 137.603 18.6912C137.873 18.7212 138.142 18.8114 138.382 18.8715C138.382 18.9616 138.352 19.0818 138.352 19.172H132.421C132.391 19.1119 132.361 19.0518 132.331 18.9917C132.541 18.8715 132.751 18.7212 132.99 18.6912C133.829 18.5409 134.218 18.0301 134.218 17.1887C134.218 13.192 134.218 9.19533 134.218 5.19867C134.218 4.29717 133.859 3.66612 132.841 3.63607C132.601 3.63607 132.361 3.48582 132.122 3.39567C132.122 3.30552 132.152 3.21537 132.152 3.12522H138.382C138.172 3.36562 138.112 3.45577 138.022 3.48582C136.225 4.08682 136.195 4.08682 136.195 6.04008V9.31553C136.195 9.67614 136.285 10.0367 136.315 10.3973C137.393 10.2471 142.366 5.49917 143.174 3.90652C142.785 3.72622 142.396 3.54592 142.006 3.33557C142.036 3.24542 142.066 3.15527 142.066 3.09517H147.547C147.338 3.33557 147.278 3.45577 147.218 3.48582C145.091 3.81637 143.624 5.19867 142.156 6.58098C141.168 7.48248 140.239 8.41403 139.251 9.31553C138.771 9.76629 138.771 10.1269 139.191 10.6077C141.317 12.9816 143.384 15.3857 145.541 17.6995C145.96 18.1503 146.619 18.3306 147.188 18.6311C147.398 18.7513 147.607 18.7813 147.817 18.8715C147.907 19.0518 147.877 19.172 147.847 19.2621V19.2621ZM160.098 6.37063C160.038 10.187 159.798 13.9733 160.397 17.7596C160.457 18.1202 161.176 18.4207 161.655 18.6912C161.925 18.8414 162.284 18.8414 162.614 18.9015C162.614 18.9917 162.584 19.1119 162.584 19.202H157.013C156.983 19.1419 156.953 19.1119 156.923 19.0518C157.162 18.9316 157.372 18.7513 157.612 18.7513C158.48 18.6611 158.93 18.2104 158.93 17.369C158.989 13.5526 159.079 9.70619 159.049 5.88983C159.049 4.35727 158.63 4.05677 157.132 3.69617C156.893 3.63607 156.683 3.51587 156.473 3.39567C156.473 3.30552 156.503 3.18532 156.533 3.09517C157.132 3.09517 157.761 3.15527 158.36 3.09517C159.828 2.88482 160.697 3.42572 161.655 4.65777C164.561 8.29383 167.766 11.7496 170.851 15.2354C170.911 15.2955 171 15.3556 171.09 15.3857C171.15 15.3256 171.24 15.2955 171.24 15.2655C171.24 12.0501 171.21 8.83473 171.18 5.64942C171.18 4.47747 170.701 3.66612 169.353 3.69617C169.173 3.69617 168.964 3.51587 168.814 3.18532H174.445L174.505 3.42572C174.295 3.51587 174.086 3.69617 173.846 3.72622C172.768 3.81637 172.408 4.47747 172.408 5.46912C172.378 8.89483 172.318 12.2905 172.288 15.7162C172.288 16.8281 172.348 17.97 172.348 19.0818C172.348 19.2922 172.229 19.5025 172.139 19.8932C168.125 15.2955 164.261 10.818 160.367 6.37063C160.277 6.34058 160.188 6.37063 160.098 6.37063V6.37063ZM2.33632 0.21036C2.63585 0.15026 2.90542 0.0300598 3.20495 0.0300598H9.1356C9.37522 0.0300598 9.58489 0.18031 9.82452 0.27046C9.61485 0.450761 9.43513 0.691162 9.19551 0.751262C7.84763 1.14191 7.60801 1.44241 7.57806 2.91487C7.5481 7.60268 7.57806 12.2905 7.51815 16.9483C7.4882 18.9616 7.24858 20.975 5.93065 22.6578C4.67264 24.2504 3.11509 25.212 1.01839 25.0618C0.658961 25.0317 0 24.6711 0 24.4608C0 23.7997 0.329481 23.1987 1.16816 23.2287C1.52759 23.2588 1.88703 23.3489 2.27641 23.4391C3.804 23.7997 4.49292 23.4391 4.73254 21.8765C4.97216 20.1937 5.15188 18.4808 5.18183 16.798C5.24174 12.3806 5.21179 7.99333 5.21179 3.57597C5.21179 3.21537 5.18183 2.82472 5.15188 2.46412C5.03207 1.44241 4.55282 0.811362 3.47452 0.781312C3.11509 0.751262 2.75566 0.631061 2.42618 0.570961C2.36627 0.450761 2.36627 0.330561 2.33632 0.21036V0.21036ZM126.341 19.2321H119.991C119.961 19.1419 119.961 19.0518 119.931 18.9316C120.171 18.8715 120.41 18.7513 120.65 18.7212C121.518 18.601 121.998 18.1503 121.998 17.2187C121.998 13.222 121.998 9.22538 121.998 5.22872C121.998 4.41737 121.638 3.93657 120.8 3.90652C120.5 3.90652 120.231 3.75627 119.781 3.66612C120.051 3.42572 120.171 3.21537 120.29 3.21537C122.836 3.24542 125.412 3.09517 127.898 3.39567C130.235 3.69617 131.493 5.40902 131.553 7.54258C131.613 9.76629 130.444 11.2988 128.078 11.9599C127.329 12.1703 126.521 12.2604 125.742 12.3806C125.712 12.2604 125.682 12.1402 125.622 12.0501C125.862 11.9299 126.071 11.8097 126.281 11.7496C128.497 11.0284 129.426 9.70619 129.306 7.39233C129.186 4.95827 127.06 3.33557 124.693 3.78632C124.005 3.90652 123.975 4.38732 123.975 4.92822V14.1235C123.975 15.0551 123.975 15.9566 124.035 16.8882C124.124 18.3005 124.334 18.5109 125.712 18.7212C125.951 18.7513 126.191 18.8414 126.401 18.9015C126.401 19.0217 126.371 19.1119 126.341 19.2321V19.2321ZM72.6655 6.28048C72.5157 6.01003 72.3659 5.76962 72.2461 5.49917C71.4374 3.72622 69.6702 2.97497 67.8431 3.66612C66.4053 4.20702 65.7164 6.04008 66.5551 7.42238C66.9744 8.11353 67.6634 8.71453 68.3223 9.22538C69.3108 9.97664 70.3891 10.5175 71.3775 11.2688C73.0848 12.591 73.6839 14.394 73.1747 16.4675C72.6655 18.5109 71.078 19.4124 69.131 19.6528C68.4421 19.7429 67.6933 19.7429 67.0044 19.6528C64.1289 19.2321 63.4999 18.3606 64.0091 15.2354C64.1888 15.5059 64.3985 15.7763 64.5183 16.0768C65.2372 17.7296 66.3454 18.8715 68.2325 18.9917C69.4605 19.0518 70.5688 18.7513 71.1678 17.5793C71.7968 16.3773 71.7369 15.0852 70.8983 14.0033C70.3891 13.3422 69.6402 12.8614 68.9813 12.3506C67.9928 11.5993 66.9445 10.9983 66.0459 10.1569C64.6681 8.89483 64.1888 7.30218 64.8178 5.49917C65.4468 3.78632 66.8546 3.00502 68.5919 2.79467C69.2509 2.70452 69.9697 2.73457 70.6287 2.79467C72.7853 2.97497 73.3843 3.84642 72.6655 6.28048V6.28048ZM183.311 6.28048C183.161 6.01003 183.012 5.73958 182.892 5.46912C182.113 3.69617 180.286 2.94492 178.459 3.63607C176.841 4.26712 176.272 6.37063 177.47 7.84308C177.979 8.50418 178.728 8.98498 179.417 9.49584C180.316 10.1569 181.334 10.6978 182.203 11.419C183.79 12.7412 184.329 14.5142 183.79 16.4975C183.281 18.4508 181.783 19.3823 179.896 19.6227C179.058 19.7429 178.189 19.7129 177.35 19.5927C174.834 19.2321 173.936 17.9099 174.475 15.0251C174.775 15.5359 174.954 15.8364 175.104 16.1369C175.823 17.7296 176.931 18.8715 178.788 18.9616C180.016 19.0217 181.125 18.7212 181.754 17.5493C182.412 16.3172 182.293 15.0852 181.514 13.9733C181.125 13.4324 180.555 13.0117 180.016 12.591C178.998 11.8397 177.89 11.2087 176.931 10.4274C175.314 9.07513 174.804 7.24208 175.404 5.46912C175.973 3.84642 177.68 2.76462 179.687 2.73457C180.226 2.73457 180.795 2.70452 181.334 2.76462C183.461 3.03507 184.06 3.96662 183.311 6.28048V6.28048ZM155.215 19.2321H149.045L148.985 18.9616C149.255 18.8715 149.524 18.7513 149.794 18.7212C150.633 18.571 151.052 18.1202 151.052 17.2788C151.052 13.222 151.052 9.16528 151.052 5.10852C151.052 4.26712 150.663 3.75627 149.794 3.69617C149.494 3.66612 149.225 3.51587 148.955 3.42572L149.015 3.15527H155.275C155.275 3.24542 155.305 3.36562 155.335 3.45577C155.036 3.54592 154.766 3.66612 154.467 3.69617C153.628 3.75627 153.238 4.20702 153.209 5.01837C153.179 6.82138 153.149 8.62438 153.119 10.4274V16.2571C153.119 18.2404 153.119 18.2404 155.066 18.7813C155.185 18.8114 155.305 18.8715 155.455 18.9015C155.335 19.0217 155.275 19.1119 155.215 19.2321V19.2321ZM100.851 35.6695H97.9756C99.0539 35.369 98.9041 34.4975 98.9341 33.7162C98.9341 32.1235 98.9341 30.5008 98.9341 28.9082C98.9341 27.9466 98.9041 27.9466 97.7659 27.4357C99.6529 27.3155 101.24 27.015 102.798 27.616C104.116 28.1269 104.415 29.8097 103.427 30.8614C103.157 31.1619 102.798 31.3723 102.289 31.793C103.337 33.1453 104.415 34.4975 105.404 35.7296C104.625 35.9099 103.996 35.7596 103.277 34.8581C102.708 34.1369 102.289 33.2955 101.69 32.6043C101.39 32.2437 101.24 32.0935 100.012 31.8831V33.025C100.012 33.3556 99.9824 33.7162 100.012 34.0468C100.072 34.7079 100.012 35.4291 101.121 35.369C100.971 35.5192 100.911 35.5793 100.851 35.6695V35.6695ZM100.731 31.5225C102.109 31.5225 102.738 30.9516 102.798 29.7496C102.828 28.5476 102.109 27.7663 100.911 27.6761C100.162 27.616 99.8626 27.8865 99.8926 28.6678C99.9225 29.2988 99.9225 29.9599 99.8926 30.621C99.8626 31.2821 100.072 31.5225 100.731 31.5225V31.5225ZM50.141 36C48.0143 33.566 46.0374 31.3422 44.0306 28.9983C44.0306 31.0718 44.0006 32.9649 44.0905 34.8281C44.0905 35.0985 44.6896 35.369 45.079 35.6695H42.4731C43.4915 35.3089 43.4016 34.4074 43.4315 33.6261C43.4615 32.0935 43.5214 30.5309 43.4016 29.0284C43.3417 28.4574 42.8325 27.9165 42.5629 27.3756C43.4315 27.1653 44.2403 27.4357 45.019 28.4875C46.3669 30.3205 47.9544 31.9432 49.6018 33.8064C49.6018 31.793 49.6318 30.0501 49.5719 28.3072C49.5719 28.0067 49.0327 27.7362 48.7032 27.4658H51.1893C50.2608 27.7963 50.2608 28.5776 50.2608 29.3589V34.798C50.2009 35.0685 50.1709 35.399 50.141 36V36ZM90.6671 33.8364C90.6072 35.5493 90.4874 35.7296 88.9897 35.7296C87.3423 35.7296 85.6949 35.7296 83.9876 35.6094C85.2456 35.4591 85.1857 34.5877 85.1558 33.7162C85.1258 32.1235 85.1857 30.5008 85.1258 28.9082C85.0959 28.3973 84.7964 27.9165 84.6166 27.4057H89.7685C89.8284 27.8865 89.9183 28.3973 89.9782 28.9082C89.1395 27.1653 87.6419 27.8564 86.264 27.7362V30.9816C88.0612 31.3422 88.4206 31.222 89.0496 29.9599V32.5442C88.7202 31.4324 87.8216 31.5526 86.9529 31.5526C86.4138 31.5526 86.1143 31.7329 86.1742 32.3038C86.2041 32.5142 86.1442 32.7245 86.1742 32.9048C86.294 33.7162 85.7249 34.768 86.923 35.1887C88.2409 35.6695 89.5289 35.2488 90.3376 34.1369C90.4275 34.0768 90.5173 34.0167 90.6671 33.8364V33.8364ZM26.658 27.3756H29.3837C28.5151 27.6761 28.4851 28.3973 28.5151 29.1486C28.545 30.4708 28.5151 31.823 28.6648 33.1152C28.8146 34.5276 29.6233 35.2488 30.8813 35.3389C32.1993 35.4291 33.2476 34.798 33.4573 33.3856C33.6669 31.7028 33.5771 29.99 33.5172 28.3072C33.5172 27.9766 33.0379 27.6761 32.7983 27.3756H35.1346C34.1761 27.586 34.236 28.3673 34.2061 29.0584C34.1462 30.4708 34.236 31.8831 34.0264 33.2354C33.7568 35.1286 32.4389 36 30.432 35.8498C28.6049 35.6995 27.6764 34.7379 27.5566 32.7846C27.4967 31.4925 27.5266 30.2003 27.4967 28.8781C27.4967 28.2771 27.5865 27.5559 26.658 27.3756V27.3756ZM149.854 27.3756H152.22C152.25 27.8564 152.16 28.3072 152.31 28.6678C152.729 29.6294 153.238 30.5609 153.808 31.7028C154.556 30.3205 155.185 29.1486 155.874 27.9165C155.605 27.7362 155.395 27.586 155.096 27.3756H157.522C155.814 28.3673 155.215 30.0801 154.496 31.6127C154.077 32.5142 154.197 33.7162 154.227 34.798C154.227 35.0685 154.826 35.3389 155.215 35.6394H152.01C153.149 35.0685 153.598 33.7162 152.969 32.2137C152.4 30.8314 151.681 29.5092 150.962 28.217C150.663 27.8865 150.273 27.7062 149.854 27.3756V27.3756ZM68.9513 27.3456H71.1379C71.1079 27.7963 70.8983 28.2771 71.048 28.6377C71.677 30.3806 72.3959 32.0935 73.2346 34.1369C74.1332 32.0033 74.9119 30.1402 75.6308 28.2771C75.7207 28.0668 75.3912 27.7062 75.2714 27.4057H77.1883C76.8589 27.8564 76.3796 28.3072 76.11 28.8781C75.1815 30.8915 74.3129 32.9349 73.4143 34.9483C73.2945 35.2488 73.1447 35.5192 72.935 36C71.9466 33.5059 71.048 31.222 70.0596 28.9382C69.79 28.3673 69.3108 27.8865 68.9513 27.3456V27.3456ZM137.453 35.6695C138.502 35.4892 138.592 34.768 138.592 33.9266C138.592 31.9132 138.592 29.8998 138.592 27.9165C136.914 27.4958 136.345 27.6461 135.057 28.9983C135.237 28.217 135.387 27.6461 135.506 27.1653C138.052 27.4357 140.539 27.4057 143.084 27.1953C143.055 27.6761 142.995 28.2771 142.935 28.9983C142.126 27.6461 141.647 27.4958 139.64 27.8564C139.64 30.1102 139.61 32.394 139.67 34.6778C139.67 35.0084 140.239 35.3389 140.568 35.6695C139.55 35.6695 138.502 35.6695 137.453 35.6695V35.6695ZM116.606 28.9683C116.217 28.187 115.768 27.3756 114.749 27.5559C114.27 27.6461 113.611 27.9165 113.461 28.2771C113.281 28.6978 113.401 29.4491 113.671 29.8397C114.06 30.3506 114.779 30.621 115.258 31.0718C115.827 31.5826 116.516 32.1235 116.756 32.7846C117.385 34.4675 116.187 35.8498 114.21 35.8498C112.413 35.8498 111.874 35.3089 112.083 33.5359C112.323 33.9566 112.443 34.4374 112.742 34.5877C113.341 34.9483 114.03 35.369 114.689 35.369C115.109 35.369 115.738 34.7379 115.917 34.2571C116.217 33.4758 115.768 32.8147 115.109 32.3339C114.569 31.9132 113.97 31.5826 113.431 31.1619C112.263 30.2304 112.023 28.9382 112.802 27.9466C113.461 27.1052 115.558 26.6544 116.367 27.3456C116.696 27.6461 116.726 28.2771 116.906 28.7579C116.786 28.8781 116.696 28.9082 116.606 28.9683V28.9683ZM59.0669 27.3456H61.3134C61.1336 27.8865 60.7742 28.4574 60.7443 29.0284C60.6544 30.7412 60.7443 32.424 60.7143 34.1369C60.7143 34.8581 60.8042 35.4591 61.7028 35.6094H58.7075C59.7858 35.369 59.666 34.5276 59.666 33.7162C59.666 32.1235 59.7259 30.5008 59.636 28.9082C59.6061 28.3973 59.2466 27.8865 59.0669 27.3456ZM127.539 35.6695H124.574C125.742 35.3089 125.592 34.3172 125.592 33.3856C125.592 31.9432 125.622 30.5008 125.592 29.0885C125.562 27.9766 125.502 27.8865 124.574 27.3756H127.18C127 27.8865 126.64 28.4875 126.64 29.0885C126.551 30.6811 126.64 32.3038 126.61 33.8965C126.551 34.6478 126.551 35.399 127.539 35.6695V35.6695Z" fill="#4B5371"/>
</g>
<defs>
<clipPath id="clip0">
<rect width="184" height="36" fill="white"/>
</clipPath>
</defs>
</svg>
