<svg width="25" height="34" viewBox="0 0 25 34" fill="none" xmlns="http://www.w3.org/2000/svg">
<path d="M2 26.9298L12.5 31.5965L23 26.9298" stroke="#4B5371" stroke-width="3" stroke-linecap="round" stroke-linejoin="round"/>
<path fill-rule="evenodd" clip-rule="evenodd" d="M13.4345 2.21511L21.8345 6.33333C22.5481 6.68104 22.9996 7.39485 23 8.17623V17.9879C22.9996 18.7692 22.5481 19.4831 21.8345 19.8308L13.4345 23.949C12.843 24.2392 12.1466 24.2392 11.555 23.949L3.15505 19.8308C2.44209 19.4785 1.9945 18.7604 2.00005 17.9776V8.17623C2.00047 7.39485 2.45191 6.68104 3.16555 6.33333L11.5655 2.21511C12.1542 1.9283 12.8459 1.9283 13.4345 2.21511Z" stroke="#4B5371" stroke-width="3" stroke-linecap="round" stroke-linejoin="round"/>
<path d="M3.16666 7.83334L12.5 12.5L21.8333 7.83334" stroke="#4B5371" stroke-width="3" stroke-linecap="round" stroke-linejoin="round"/>
<path d="M12.5 24.1667V12.5" stroke="#4B5371" stroke-width="3" stroke-linecap="round" stroke-linejoin="round"/>
</svg>
