<svg width="36" height="48" viewBox="0 0 36 48" fill="none" xmlns="http://www.w3.org/2000/svg">
<path d="M3 38.614L18 45.2807L33 38.614" stroke="#4B5371" stroke-width="5" stroke-linecap="round" stroke-linejoin="round"/>
<path fill-rule="evenodd" clip-rule="evenodd" d="M19.335 3.30731L31.335 9.19047C32.3545 9.6872 32.9994 10.7069 33 11.8232V25.8398C32.9994 26.9561 32.3545 27.9758 31.335 28.4725L19.335 34.3557C18.49 34.7703 17.4951 34.7703 16.65 34.3557L4.65007 28.4725C3.63156 27.9693 2.99214 26.9434 3.00007 25.8251V11.8232C3.00068 10.7069 3.64558 9.6872 4.66507 9.19047L16.665 3.30731C17.506 2.89756 18.4941 2.89756 19.335 3.30731Z" stroke="#4B5371" stroke-width="5" stroke-linecap="round" stroke-linejoin="round"/>
<path d="M4.66666 11.3334L18 18L31.3333 11.3334" stroke="#4B5371" stroke-width="5" stroke-linecap="round" stroke-linejoin="round"/>
<path d="M18 34.6667V18" stroke="#4B5371" stroke-width="5" stroke-linecap="round" stroke-linejoin="round"/>
</svg>
